<?xml version="1.0" encoding="utf-8"?>
<!-- Generator: Adobe Illustrator 21.0.0, SVG Export Plug-In . SVG Version: 6.00 Build 0)  -->
<svg version="1.1" id="Layer_1" xmlns="http://www.w3.org/2000/svg" xmlns:xlink="http://www.w3.org/1999/xlink" x="0px" y="0px"
	 viewBox="0 0 213.4 138.5" style="enable-background:new 0 0 213.4 138.5;" xml:space="preserve">
<style type="text/css">
	.st0{fill:#23336A;}
</style>
<g>
	<path class="st0" d="M137.3,0c1.4,1.2,3,2.3,4.4,3.4c2.4,1.9,4.9,3.7,7.3,5.6c2,1.5,4,3,6.1,4.6c1.9,1.5,3.8,2.9,5.7,4.4
		c1.6,1.2,3.2,2.4,4.8,3.6c2.4,1.8,4.7,3.6,7.1,5.4c2,1.5,4.1,3.1,6.1,4.6c1.9,1.4,3.8,2.9,5.7,4.3c0.1,0.1,0.2,0.2,0.3,0.3
		c0.1,0.3,0.3,0.5,0.3,0.8c0,6.5,0,13,0,19.4c0,0.5-0.2,0.6-0.7,0.6s-1-0.2-1.5,0.1l0,0c-0.1,0-0.3,0-0.4,0.1
		c-0.8,0.4-1.1,0.9-1,1.8c0,0.3,0,0.7,0,1c0,0.4,0.2,0.4,0.5,0.4c0.5,0,0.9,0,1.5,0c-0.7,0.6-1.6,0.7-1.9,1.6
		c-0.2,0.8-0.2,1.6,0,2.4c0.1,0.2,0.1,0.3,0.2,0.5c0,0.2,0.1,0.3,0.3,0.3c0.1,0,0.2,0.1,0.3,0.1h0.1l0,0c0.6,0.2,1.3,0.2,1.9,0
		c0.5-0.1,0.7,0,0.7,0.6c0,1,0,2.1,0,3.1l0,0c-0.1,0-0.1,0.1-0.2,0.1c-0.1,0-0.3,0-0.4,0c-0.5,0.1-1-0.2-1.5,0.2c-0.3,0-0.7,0-1,0.1
		c-1.4,0-2.7,0-4,0.5c-1.6,0.1-3.2,0.4-4.7,0.7c-2.5,0.5-5,0.9-7.5,1.6c-1.4,0.4-2.9,0.7-4.3,1.2c-1.6,0.5-3.3,1-4.9,1.6
		c-1.4,0.5-2.8,1.1-4.2,1.6c-1.6,0.6-3.2,1.4-4.7,2.1c-1.8,0.8-3.6,1.8-5.3,2.8c-1.4,0.8-2.8,1.7-4.2,2.6c-1.7,1.1-3.3,2.2-4.9,3.4
		c-3.6,2.7-7.1,5.7-10.3,8.9c-1.6,1.6-3.1,3.3-4.6,5c-1.6,1.9-3.1,3.8-4.6,5.8c-1.6,2.2-3.2,4.5-4.6,6.9c-1.3,2.1-2.4,4.2-3.6,6.3
		c-1.1,2.1-2.1,4.2-3.1,6.4c-0.6,1.5-1.2,3-1.8,4.5c-0.5,1.3-1,2.7-1.4,4.1c-0.1,0.4,0,0.6,0.4,0.6c0.5,0,1.1,0,1.6,0
		c24.7,0,49.5,0,74.2,0c0.4,0,0.9,0.2,1-0.2s-0.1-0.9-0.4-1.2c-0.6-0.7-1.2-1.4-2-1.9c-0.7-0.4-0.3-1-0.3-1.5s0.5-0.3,0.7-0.3
		c1.8-0.2,1.8-0.2,2.6,1.5c0.7,1.4,1.4,2.7,2.1,4.1c0.1,0.3,1.4,0.8,1.7,0.7c0.2-0.1,0.2-0.3,0.2-0.4c0.2-0.7,0.2-1.4,0.1-2.1
		c-0.1-0.5-0.1-1-0.2-1.5c0-0.4-0.1-0.6-0.4-0.9c-0.6-0.7-0.6-1.6-0.3-2.5s1-1.7,1.1-2.7c0.1-1.2,0.1-2.3-0.5-3.3
		c-0.5-0.9-1.3-1.1-2.2-1.4c-0.8-0.3-1.6-0.4-2.3-0.7c-0.7-0.2-0.8-0.5-0.5-1.1c0.6-1.2,1.7-1.9,2.8-2.5c0.5-0.2,0.9,0.3,1.4,0.5
		c1.5,0.6,2.9,1.2,4.3,1.8c0.4,0.2,0.6,0.4,0.6,0.8c0,5.4,0,10.8,0,16.2c0,0.4-0.1,0.6-0.6,0.6c-1.7,0-3.3,0-5,0
		c-31.7,0-63.5,0-95.2,0c-0.3,0-0.6,0-0.9,0s-0.5-0.1-0.5-0.4c0-0.1,0-0.2,0-0.3c0-34,0-68,0-102.1c0-1.5,0-1.4,1.2-2.2
		c2.2-1.4,4.4-2.8,6.6-4.1c2.4-1.5,4.9-3,7.4-4.5c2.6-1.6,5.1-3.2,7.7-4.9c1.8-1.2,3.7-2.3,5.6-3.5c2.2-1.4,4.5-2.8,6.7-4.2
		c2.1-1.4,4.4-2.7,6.5-4c1.9-1.2,3.8-2.4,5.6-3.6c2.2-1.4,4.3-2.7,6.5-4l0.1-0.1C137,0,137.2,0,137.3,0z M92.2,124.4L92.2,124.4
		c-0.1,0-0.1-0.1-0.2-0.1c-0.8-0.2-1.6-0.5-2.3-0.9c-0.7-0.3-1.3-0.2-1.9,0.4c-0.6,0.6-0.9,1.4-1.2,2.2c-0.2,0.7,0.1,1.5,0.7,1.8
		c0.4,0.2,0.8,0.4,1.3,0.6c1.1,0.4,2.2,0.9,3.3,1.3c1.2,0.5,2.2,0.2,2.8-1c0.3-0.5,0.4-1.1,0.6-1.7c0.2-0.7-0.1-1.4-0.7-1.7
		c-0.4-0.2-0.8-0.4-1.2-0.5c-0.1,0-0.1-0.1-0.2-0.1l0,0l0,0c-0.2-0.2-0.5-0.2-0.7-0.2l0,0l0,0C92.3,124.5,92.3,124.4,92.2,124.4z
		 M114.6,93L114.6,93c-0.2-0.1-0.2-0.2-0.3-0.2c-0.1-0.1-0.1-0.5-0.4-0.3c-0.8-0.7-1.5-1.3-2.3-2c-0.5-0.4-1-0.6-1.7-0.2
		c-0.8,0.4-1.4,1-1.9,1.7c-0.8,1.3-0.4,1.8,0.4,2.5c1.2,1,2.4,2,3.6,3c0.5,0.4,1.1,0.6,1.7,0.3c0.8-0.4,1.4-0.9,1.9-1.7
		c0.6-0.9,0.6-1.6,0.1-2.2c-0.3-0.3-0.6-0.5-0.9-0.8C114.7,93.1,114.6,93,114.6,93L114.6,93z M103.4,104.9L103.4,104.9L103.4,104.9
		L103.4,104.9c-0.1-0.3-0.3-0.3-0.4-0.3c-0.6-0.4-1.3-0.8-1.9-1.2c-0.6-0.4-1.1-0.3-1.8,0c-0.6,0.3-0.9,0.8-1.2,1.3
		c-0.9,1.6-0.7,2.2,0.8,3.2c1.1,0.7,2.3,1.4,3.4,2.1c0.8,0.5,1.6,0.5,2.4-0.1c0.6-0.5,1-1.2,1.3-1.9c0.4-0.8,0.1-1.7-0.7-2.1
		c-0.4-0.2-0.9-0.5-1.2-0.8c-0.1-0.1-0.3-0.1-0.4-0.1s-0.1-0.1-0.1-0.1C103.5,105,103.4,104.9,103.4,104.9z M156.6,64.6
		c0.1-0.2,0-0.4-0.2-0.6c-0.2-0.4-0.3-0.9-0.5-1.3c-0.2-0.5-0.5-0.8-1-0.9c-1-0.2-2,0-2.9,0.5c-1,0.6-1.3,1.1-0.9,2.2
		c0.5,1.6,1,3.1,1.5,4.7c0.1,0.4,0.4,0.6,0.8,0.8c1,0.4,3.3-0.1,4.1-1.3c0.5-0.3,0.4-0.7,0-1.1c0-0.1,0-0.2,0-0.3
		c0.1-0.9-0.7-1.6-0.6-2.6C156.8,64.6,156.6,64.6,156.6,64.6L156.6,64.6z M130.7,77.8L130.7,77.8c-0.6-0.6-1.1-1.3-1.6-2.1
		c-0.4-0.6-1-0.8-1.7-0.7c-0.9,0.1-1.5,0.6-2.1,1.2c-0.9,0.8-1,1.9-0.2,2.8c1,1.1,1.8,2.3,2.7,3.4c0.4,0.5,0.9,0.9,1.5,0.8
		c1.3-0.2,2.3-0.9,3-2.1c0.2-0.4,0.2-0.8,0-1.2c-0.4-0.5-0.7-1-1.1-1.5c0-0.2-0.1-0.3-0.3-0.3C130.7,77.9,130.7,77.8,130.7,77.8z
		 M163.4,67.7c0.2,0,0.5-0.1,0.7-0.1c0.9-0.2,0.9-0.2,0.7-1.1c-0.6-2.5-1.2-4.9-1.8-7.4c-0.3-1.5-0.3-1.5-1.8-1.1
		c-0.6,0.1-0.8,0.4-0.6,0.9c0.1,0.4,0.4,0.9,0.2,1.1c-0.2,0.3-0.7,0-1.1,0.2c-0.1,0-0.1,0-0.2,0c-1.1,0.4-1.5,0.9-1.2,1.8
		c0.4,1.3,0.7,2.6,0.9,3.9c0.1,0.6,0.3,1.3,0.6,1.8c0.4,0.7,2,0.8,2.8,0.2C162.9,67.8,163,67.6,163.4,67.7z M170.3,58.2
		c-0.4,0.1-0.9,0.2-1.3,0.3c-0.3,0-0.4,0.2-0.3,0.5c0.1,0.6,0.2,1.3,0.3,1.9c0.3,1.4,0.5,2.7,0.7,4.1c0,0.2,0,0.4-0.2,0.4
		c-0.2,0.1-0.4,0-0.5-0.3c-0.1-0.2-0.1-0.3-0.1-0.5c-0.2-1.5-0.5-3-0.7-4.5c-0.3-1.8-0.1-1.5-1.9-1.2c-0.5,0.1-0.6,0.3-0.5,0.8
		c0.3,1.9,0.8,3.8,0.9,5.8c0.1,1.1,1.1,1.7,2.1,1.4c0.9-0.3,1.9-0.4,2.8-0.5c0.4,0,0.5-0.2,0.4-0.6c-0.1-0.6-0.3-1.2-0.4-1.9
		c-0.2-1.7-0.6-3.3-0.8-5C170.9,58.4,170.9,58.1,170.3,58.2z M121.8,89.7c-0.1-0.1-0.1-0.1-0.2-0.2c-1.5-1.5-3.1-2.9-4.6-4.4
		c-0.9-0.9-1.8-0.7-2.5,0.1c-0.6,0.7-1.3,1.2-1.9,1.9c-0.3,0.4-0.3,0.6,0,0.9c1.5,1.4,3,2.8,4.5,4.3c1,1,1,1,2,0
		c0,0,0.1-0.1,0.2-0.1c0.4-0.3,0.4-0.6,0-0.9c-1.4-1.3-2.8-2.7-4.2-4c-0.2-0.2-0.5-0.3-0.2-0.6c0.2-0.2,0.5-0.1,0.7,0.1
		c1.3,1.3,2.7,2.6,4,4c0.3,0.3,0.7,0.6,1.1,0.1c0.2-0.3,0.6-0.6,0.9-0.9C121.6,89.9,121.7,89.8,121.8,89.7z M142.5,66.1
		c-0.5,0-1,0-1.2,0.3c-0.7,0.7-1.7,0.8-2.5,1.3c-0.3,0.2-0.4,0.2-0.2,0.6c1.2,2.2,2.4,4.4,3.5,6.7c0.1,0.2,0.2,0.3,0.4,0.2
		c0.5-0.3,1-0.6,1.6-0.8c0.1-0.1,0.2-0.1,0.1-0.3c-1-1.8-1.9-3.5-2.9-5.3c-0.1-0.2-0.3-0.5,0-0.7s0.5,0.1,0.6,0.3
		c0.4,0.7,0.7,1.4,1.1,2.1c0.6,1.1,1.2,2.1,1.7,3.2c0.1,0.2,0.2,0.4,0.4,0.3c0.5-0.3,1.1-0.5,1.6-0.8c0.2-0.1,0.1-0.3,0-0.4
		c-0.9-1.7-1.9-3.5-2.8-5.2C143.5,66.7,143.3,65.9,142.5,66.1z M178.9,59.8c0-0.2-0.1-0.4,0-0.7c0.1-1-0.7-1.5-1.6-1.6
		c-0.7-0.1-1.4,0-2.1,0.1c-1,0.2-1.6,1-1.5,2c0.2,1.5,0.3,3,0.4,4.5c0.1,1,0.6,1.5,1.6,1.6c0.6,0.1,1.2,0,1.9-0.1
		c1.2-0.2,1.8-0.8,1.7-2.1c-0.2-1.8-0.2-1.8-1.9-1.6c-0.4,0-0.5,0.2-0.4,0.5c0.1,0.5,0.1,1,0.1,1.4c0,0.2,0,0.5-0.3,0.5
		s-0.3-0.2-0.3-0.5c-0.1-0.9-0.2-1.8-0.3-2.7c-0.1-0.6-0.1-1.3-0.2-1.9c0-0.3,0-0.5,0.3-0.5s0.3,0.2,0.4,0.5c0,0.2,0,0.4,0,0.7
		c0.1,1.1,0.1,1.1,1.2,1C179.2,61,178.9,61.1,178.9,59.8z M123.4,87.7c1.1,0,1.7-0.7,2.4-1.3c0.5-0.4,0.8-0.9,0.8-1.5
		c0-0.4-1.3-2.4-1.7-2.3c-0.5,0-0.8,0.5-1.2,0.9c0,0-0.1,0-0.1,0.1c-0.2,0.3-0.3,0.5,0,0.8s0.6,0.6,0.9,1c0.1,0.1,0.4,0.3,0.1,0.5
		c-0.3,0.2-0.5,0.1-0.7-0.1c-0.4-0.4-0.8-0.9-1.2-1.3c-0.6-0.7-1.3-1.4-1.9-2.1c-0.1-0.2-0.3-0.4-0.1-0.6c0.3-0.2,0.4,0,0.6,0.2
		c0.3,0.3,0.6,0.6,0.8,0.9c0.3,0.3,0.6,0.4,0.9,0.1c0.3-0.3,0.5-0.5,0.8-0.7s0.3-0.4,0.1-0.6c-0.4-0.5-0.8-0.9-1.3-1.4
		c-0.4-0.4-0.9-0.5-1.5-0.3c-0.9,0.4-1.6,1-2.2,1.7c-0.4,0.6-0.4,1.4,0.1,2c1.1,1.3,2.3,2.5,3.4,3.8C122.6,87.5,123,87.6,123.4,87.7
		z M102.3,113.6c0-0.4-0.1-0.7-0.4-1c-0.6-0.6-1.4-0.9-2-1.3c-0.1-0.1-0.3-0.1-0.4,0c-0.3,0.5-0.8,1.1-0.9,1.6
		c0,0.3,0.7,0.5,1.1,0.7c0.1,0.1,0.2,0.2,0.4,0.3c0.3,0.1,0.5,0.2,0.3,0.5s-0.4,0.2-0.6,0c-1.4-0.8-2.8-1.6-4.2-2.3
		c-0.2-0.1-0.4-0.2-0.2-0.5c0.2-0.2,0.3-0.3,0.6-0.1c0.4,0.3,0.9,0.5,1.4,0.8c0.1,0.1,0.3,0.2,0.4,0c0.3-0.5,0.7-1,0.9-1.5
		c0.1-0.2-0.1-0.4-0.3-0.5c-0.5-0.3-1.1-0.6-1.6-0.8c-0.4-0.2-0.8-0.1-1.2,0.1c-0.9,0.4-1.3,1.3-1.7,2.1c-0.5,1-0.2,1.9,0.6,2.3
		c1.4,0.8,2.8,1.5,4.2,2.4c0.6,0.4,1.4,0.4,2,0C101.5,115.7,102,114.7,102.3,113.6z M96.2,120.9c0-0.1,0.1-0.1,0.1-0.2
		c0.5,0,0.9,0.1,1.4,0.2c0.4,0.1,0.8,0.1,0.9-0.5c0.1-0.4,0.3-0.8,0.6-1.1c0.3-0.4,0.1-0.5-0.3-0.5c-1.3-0.1-2.5-0.1-3.8-0.3
		c-0.3-0.1-0.6-0.2-0.8-0.4c-0.5-0.6-1.1-1.2-1.7-1.7c-0.3-0.3-0.6-0.9-1-0.8c-0.3,0.1-0.5,0.7-0.7,1.1s-0.1,0.7,0.2,0.9
		c0.4,0.2,0.7,0.5,1,0.9c-0.5,0.1-1-0.1-1.4-0.2c-0.3-0.1-0.5-0.1-0.7,0.2c-0.2,0.4-0.4,0.9-0.7,1.4c-0.1,0.3-0.1,0.4,0.3,0.5
		c1.1,0.2,2.3,0.1,3.4,0.2c0.3,0,0.5,0.1,0.7,0.3c0.8,0.9,1.8,1.8,2.6,2.7c0.2,0.3,0.4,0.3,0.6-0.1c0.1-0.4,0.3-0.7,0.5-1.1
		c0.2-0.3,0.1-0.6-0.2-0.9C96.9,121.6,96.5,121.3,96.2,120.9z M103.8,94.1c-0.1,0.1-0.2,0.2-0.3,0.2c-0.3,0.3-0.5,0.7-0.8,0.9
		c-0.4,0.3-0.2,0.6,0.1,0.8c0.6,0.4,1.2,0.8,1.7,1.3c1.9,1.4,3.8,2.9,5.7,4.3c0.2,0.1,0.4,0.2,0.5,0c0.3-0.4,0.7-0.8,1-1.2
		c0.2-0.2,0.2-0.4-0.1-0.5c-2.3-1.6-4.5-3.3-6.7-5C104.6,94.6,104.2,94.4,103.8,94.1z M109.1,103.7c0-0.3-0.2-0.4-0.4-0.5
		c-1.3-0.9-2.5-1.8-3.8-2.7c-1.2-0.9-2.5-1.7-3.7-2.6c-0.3-0.2-0.5-0.1-0.7,0.1c-0.2,0.3-0.4,0.6-0.7,1c-0.3,0.4-0.1,0.6,0.2,0.8
		c2.6,1.7,5,3.5,7.5,5.2c0.1,0.1,0.3,0.2,0.5,0.1C108.2,105.1,109.1,103.8,109.1,103.7z M140.3,76.1c-0.4-0.6-0.7-1.2-1-1.7
		c-0.8-1.4-1.7-2.7-2.6-4.1c-0.6-0.9-0.7-1.4-1.7-0.5c0,0-0.1,0.1-0.2,0.1c-0.8,0.3-0.8,0.4-0.3,1.1c0.8,1.2,1.5,2.4,2.2,3.6
		c0.5,0.8,1.1,1.5,1.5,2.4c0.1,0.3,0.4,0.2,0.5,0.1C139.3,76.7,140,76.6,140.3,76.1z M134,69.9c0.1,0,0.1,0,0.2,0
		c0.5-0.3,1-0.6,1.5-0.9c0.2-0.1,0.1-0.2,0-0.4c-0.6-1-0.6-1-1.6-0.5c-0.2,0.1-0.3,0.2-0.5,0.3c-0.2,0.1-0.5,0.1-0.3,0.4
		C133.5,69.3,133.7,69.6,134,69.9z"/>
	<path class="st0" d="M0.7,122.8c0.8,0,1.7,0,2.5,0c0.5,0,0.6,0.2,0.6,0.6c0,3,0,6.1,0,9.1c0,0.9,0,1.8,0,2.6c0,0.3-0.1,0.8,0.4,0.8
		c0.5,0,0.4-0.5,0.4-0.8c0-2.4,0-4.8,0-7.3c0-1.5,0-3,0-4.5c0-0.4,0.1-0.6,0.6-0.6c0.7,0,1.4,0,2.1,0c0.4,0,0.5,0.1,0.5,0.5
		c0,3.6,0,7.3,0,10.9c0,0.9,0,1.9-0.5,2.7c-0.5,0.7-1,1.3-1.9,1.5c-0.1,0-0.2,0.1-0.2,0.2c-0.5,0-1.1,0-1.6,0
		c-0.6-0.3-1.3-0.5-1.8-1c-0.6-0.5-0.7-1.2-1.1-1.8C0.7,131.5,0.7,127.2,0.7,122.8z"/>
	<path class="st0" d="M46.7,138.7c0-0.3-0.3-0.2-0.5-0.3c-0.9-0.4-1.7-1-1.9-2.1c-0.2-1-0.3-2-0.3-3.1c0-0.4,0.1-0.5,0.5-0.5
		c0.6,0,1.3,0,1.9,0c0.4,0,0.6,0.1,0.5,0.5c0,0.6,0,1.3,0,1.9c0,0.4,0.1,0.8,0.6,0.8s0.5-0.4,0.6-0.8c0.3-1.5-0.4-2.6-1.6-3.4
		c-0.4-0.3-0.8-0.7-1.2-1c-0.7-0.6-1.1-1.3-1.3-2.2c-0.3-1.6-0.3-3.1,0.3-4.7c0.2-0.5,0.7-0.8,1.2-1.1c1.3-0.7,3.8-0.3,4.7,0.9
		c0.5,0.6,0.5,1.4,0.6,2.2c0.1,1.6,0.1,1.6-1.5,1.6c-1.5,0-1.5,0-1.6-1.5c0-0.3,0.1-0.9-0.4-0.9s-0.5,0.5-0.6,0.9
		c-0.2,1.4,0.7,2.1,1.6,2.8c1.8,1.3,2.8,2.9,2.6,5.2c-0.1,0.7,0,1.4-0.1,2.2c-0.2,1.2-0.9,1.8-2,2.2c-0.2,0.1-0.4,0-0.5,0.3
		C48,138.7,47.4,138.7,46.7,138.7z"/>
	<path class="st0" d="M13.1,99.1c-0.1,1.3-0.1,2.5-0.3,3.7c-0.5,4.5-0.7,9.1-1.2,13.6c-0.1,0.5-0.1,1.1-0.1,1.6
		c0,0.4-0.1,0.5-0.5,0.5c-2.3,0-4.6,0-6.8,0c-0.5,0-0.6-0.2-0.6-0.6c-0.1-2-0.2-4-0.3-5.9c-0.3-4.2-0.6-8.5-0.9-12.7
		c-0.2-2.3-0.3-4.6-0.5-6.9c-0.4-4.4-0.7-8.8-1-13.3c0-0.5,0.1-0.6,0.5-0.6c1.7,0,3.4,0,5.1,0c0.5,0,0.5,0.2,0.6,0.6
		c0.1,3.1,0.1,6.1,0.4,9.2c0.2,3.1,0.2,6.1,0.4,9.2c0.1,1.8,0.2,3.6,0.3,5.5c0,0.1,0,0.3,0.2,0.4c0.2-0.3,0.1-0.7,0.1-1.1
		c0.1-2.6,0.2-5.2,0.3-7.8c0.3-4.1,0.6-8.2,0.9-12.4c0.1-1,0.2-2,0.3-3c0-0.5,0.2-0.6,0.6-0.6c1.8,0,3.6,0,5.4,0
		c0.5,0,0.6,0.1,0.7,0.6c0.1,2.4,0.2,4.7,0.3,7.1c0.2,2.4,0.1,4.9,0.3,7.3c0.3,3.9,0.3,7.7,0.6,11.6c0,0.1,0,0.2,0.1,0.2
		c0.1-1.5,0.1-3.1,0.2-4.6c0.3-5.5,0.7-11,1-16.5c0.1-1.8,0.3-3.5,0.4-5.3c0-0.4,0.1-0.5,0.5-0.5c1.8,0,3.5,0,5.3,0
		c0.4,0,0.5,0.1,0.5,0.5c-0.3,3.8-0.6,7.5-0.8,11.3c0,0.5-0.1,1.1-0.1,1.6c-0.2,3.7-0.5,7.4-0.7,11c-0.3,4.1-0.6,8.2-0.9,12.4
		c-0.1,0.9-0.2,1.8-0.2,2.7c0,0.4-0.2,0.5-0.5,0.5c-2.3,0-4.6,0-6.9,0c-0.3,0-0.5-0.1-0.5-0.4c-0.3-2.5-0.6-5-0.8-7.5
		c-0.4-3.7-0.6-7.4-0.9-11.1C13.3,99.4,13.3,99.3,13.1,99.1z M8.2,103.9C8.2,103.8,8.3,103.8,8.2,103.9
		C8.2,103.8,8.2,103.8,8.2,103.9C8.2,103.8,8.2,103.9,8.2,103.9L8.2,103.9z"/>
	<path class="st0" d="M25.8,36.5c1.1,0,2.2,0,3.3,0c0.4,0,0.6,0.1,0.7,0.5c0.5,2.7,1,5.5,1.5,8.2c0.4,2.5,1,5,1.4,7.5
		c0.5,2.5,1,5.1,1.4,7.6c0.3,1.8,0.7,3.6,1,5.4c0.5,2.8,1.1,5.5,1.6,8.2c0.1,0.5,0.1,0.7-0.5,0.7c-1.9,0-3.8,0-5.7,0
		c-0.4,0-0.6-0.2-0.7-0.6c-0.3-2.2-0.9-4.4-1.3-6.6c-0.2-1-0.3-2-0.6-3c-0.1-0.3-0.2-0.4-0.5-0.4c-0.8,0-1.6,0-2.4,0
		c-0.3,0-0.5,0.1-0.5,0.4c-0.2,1.9-0.3,3.7-0.7,5.6c-0.2,1.4-0.3,2.8-0.6,4.2c-0.1,0.3-0.2,0.5-0.6,0.5c-1.9,0-3.9,0-5.8,0
		c-0.4,0-0.5-0.2-0.4-0.5c0.4-2.1,0.6-4.2,0.9-6.2c0.4-2.3,0.7-4.7,1-7c0.4-2.2,0.7-4.3,1-6.5c0.5-3.3,1-6.5,1.5-9.8
		c0.4-2.5,0.8-5.1,1.2-7.6c0.1-0.4,0.2-0.5,0.6-0.5C23.5,36.5,24.7,36.5,25.8,36.5z M25.9,50.5C25.9,50.6,25.8,50.6,25.9,50.5
		c-0.4,2.5-0.6,4.9-1,7.3c-0.1,0.3,0.1,0.4,0.4,0.4c0.4,0,0.8,0,1.2,0c1,0,0.9,0,0.8-0.9c-0.3-2.1-0.9-4.2-1.2-6.3
		C26.1,50.8,26.2,50.6,25.9,50.5z"/>
	<path class="st0" d="M43.4,104.4c0.8,0,1.5,0,2.3,0c0.9,0,0.9,0,0.9,0.9c0,2.1-0.1,4.3,0.2,6.4c0.1,0.8,0.4,1.1,1.1,1
		c0.5-0.1,0.7-0.5,0.9-0.9c0.4-1.2,0.4-2.4,0.3-3.7c0-0.5-0.1-1-0.2-1.4c0-1.4-0.9-2.4-1.8-3.4c-1.6-1.7-3.3-3.3-4.8-5.1
		c-0.9-1.1-1.4-2.3-1.7-3.7c-0.8-3.1-0.6-6.2-0.3-9.2c0.1-1.5,0.5-3.1,1.5-4.3c1.3-1.7,3-2.5,5.2-2.6c2.5-0.1,4.6,0.6,6.2,2.5
		c0.6,0.7,1,1.5,1.2,2.4c0.5,2.4,0.5,4.9,0.5,7.4c0,0.3-0.1,0.4-0.4,0.4c-1.8,0-3.6,0-5.4,0c-0.4,0-0.5-0.2-0.4-0.5c0-1,0-2.1,0-3.1
		c0-0.6-0.1-1.3-0.3-1.9c-0.1-0.3-0.3-0.5-0.7-0.5s-0.7,0.1-0.8,0.5s-0.3,0.8-0.4,1.2c-0.2,1.6-0.2,3.2,0.4,4.7c0.4,1,1.2,1.6,2,2.3
		c1.6,1.5,3.2,3,4.4,4.8c0.7,1,1.3,2.2,1.5,3.5c0.6,3,0.7,6.1,0.5,9.1c-0.1,1.4-0.2,2.9-0.8,4.2c-0.6,1.3-1.6,2.3-2.8,3.1
		c-1.6,1-3.4,1.2-5.2,0.8c-2.3-0.4-3.9-1.7-5-3.8c-1-2-1-4.2-1.2-6.3c-0.1-1.4,0-2.7-0.1-4.1c0-0.5,0.2-0.6,0.6-0.6
		C41.7,104.4,42.5,104.4,43.4,104.4z"/>
	<path class="st0" d="M53.1,64c-0.1,1.7,0,3.6-0.5,5.4c-0.4,1.7-1.4,3-2.8,3.9c-2.5,1.5-5.1,1.6-7.6,0.4c-1.4-0.7-2.5-1.8-3.1-3.4
		c-0.9-2.1-0.9-4.3-0.9-6.5c0-1,0-2.1,0-3.1c0-0.4,0.1-0.6,0.5-0.6c1.7,0,3.5,0,5.2,0c0.4,0,0.5,0.1,0.5,0.5c0,1.8,0,3.6,0,5.4
		c0,0.5,0,1.1,0.3,1.6c0.5,0.7,1.3,0.6,1.7-0.2c0.2-0.4,0.4-0.9,0.4-1.4c0-1.5,0.1-3-0.3-4.5c-0.3-1.1-1-1.8-1.7-2.6
		c-1.4-1.5-2.9-2.8-4.3-4.3c-1.3-1.4-1.9-3.1-2.2-4.9c-0.4-2.1-0.5-4.2-0.3-6.3c0.1-1.4,0.2-2.8,0.7-4.1c0.8-1.8,2-3.1,3.9-3.7
		c1.9-0.6,3.8-0.6,5.6,0.1c2.2,0.8,3.6,2.3,4.1,4.7c0.4,2.1,0.3,4.3,0.4,6.4c0,0.4-0.1,0.6-0.5,0.6c-1.7,0-3.5,0-5.2,0
		c-0.5,0-0.6-0.1-0.5-0.6c0-1.3,0-2.5,0-3.8c0-0.9-0.4-1.5-0.9-1.6c-0.5,0-0.9,0.5-1.1,1.4c-0.2,1.3-0.1,2.6,0.1,3.9
		c0.2,1.1,1,1.8,1.7,2.5c1.7,1.5,3.3,3,4.7,4.7c0.9,1.1,1.4,2.4,1.8,3.7C53.1,59.9,53.1,61.9,53.1,64z"/>
	<path class="st0" d="M0.9,55.4c0-6.1,0-12.3,0-18.4c0-0.6,0.2-0.7,0.7-0.7c4.3,0,8.6,0,13,0c0.6,0,0.7,0.2,0.7,0.7c0,1.3,0,2.6,0,4
		c0,0.5-0.1,0.7-0.7,0.7c-2,0-4.1,0-6.1,0c-0.5,0-0.7,0.1-0.7,0.7c0,2.7,0,5.4,0,8.1c0,0.5,0.1,0.7,0.7,0.7c1.7,0,3.3,0,5,0
		c0.5,0,0.7,0.1,0.7,0.7c0,1.4,0,2.7,0,4.1c0,0.5-0.2,0.6-0.6,0.6c-1.7,0-3.4,0-5.1,0c-0.5,0-0.6,0.1-0.6,0.6c0,3.7,0,7.3,0,11
		c0,0.5,0.2,0.6,0.7,0.6c2,0,4,0,6,0c0.5,0,0.7,0.1,0.7,0.7c0,1.5,0,3.1,0,4.6c0,0.6-0.2,0.7-0.8,0.7c-4.3,0-8.5,0-12.8,0
		c-0.6,0-0.7-0.2-0.7-0.7C0.9,67.7,0.9,61.6,0.9,55.4z"/>
	<path class="st0" d="M60.2,101.2c0-5.6,0-11.1,0-16.7c0-0.6-0.2-0.7-0.7-0.7c-0.9,0-1.7,0-2.6,0c-0.4,0-0.5-0.1-0.5-0.5
		c0-1.4,0-2.8,0-4.2c0-0.5,0.2-0.5,0.6-0.5c4.5,0,9,0,13.5,0c0.5,0,0.6,0.1,0.6,0.6c0,1.3,0,2.7,0,4c0,0.5-0.2,0.7-0.7,0.7
		c-0.8,0-1.5,0-2.3,0c-0.6,0-0.7,0.2-0.7,0.7c0,9.9,0,19.8,0,29.7c0,1.2,0,2.5,0,3.7c0,0.5-0.2,0.7-0.7,0.7c-1.9,0-3.9,0-5.8,0
		c-0.6,0-0.8-0.1-0.7-0.7C60.2,112.3,60.2,106.8,60.2,101.2z"/>
	<path class="st0" d="M27.8,98.6c0-6.4,0-12.8,0-19.3c0-0.6,0.1-0.7,0.7-0.7c3.5,0,6.9,0,10.4,0c0.5,0,0.7,0.1,0.7,0.6
		c0,1.4,0,2.8,0,4.2c0,0.4-0.1,0.5-0.5,0.5c-1.7,0-3.3,0-5,0c-0.5,0-0.6,0.1-0.6,0.6c0,2.9,0,5.8,0,8.8c0,0.5,0.2,0.6,0.6,0.6
		c1.3,0,2.7,0,4,0c0.4,0,0.6,0.1,0.6,0.6c0,1.5,0,3,0,4.6c0,0.4-0.1,0.6-0.6,0.6c-1.3,0-2.7,0-4,0c-0.4,0-0.6,0.1-0.6,0.6
		c0,3.9,0,7.8,0,11.7c0,0.5,0.2,0.6,0.6,0.6c1.6,0,3.1,0,4.7,0c0.4,0,0.6,0.1,0.6,0.6c0,1.8,0,3.5,0,5.3c0,0.4-0.1,0.5-0.5,0.5
		c-3.5,0-7,0-10.4,0c-0.6,0-0.5-0.3-0.5-0.7C27.8,111.4,27.8,105,27.8,98.6z"/>
	<path class="st0" d="M67.4,57.8c0,5.3,0,10.7,0,16c0,0.6-0.2,0.8-0.8,0.8c-1.9,0-3.8,0-5.6,0c-0.6,0-0.8-0.1-0.8-0.8
		c0-5.8,0-11.6,0-17.4c0-4.9,0-9.8,0-14.6c0-0.6-0.1-0.8-0.7-0.7c-0.8,0.1-1.7,0-2.5,0c-0.4,0-0.6-0.1-0.6-0.5c0-1.3,0-2.5,0-3.8
		c0-0.4,0.1-0.6,0.6-0.6c4.5,0,9,0,13.5,0c0.4,0,0.6,0.1,0.6,0.6c0,1.3,0,2.5,0,3.8c0,0.4-0.1,0.6-0.6,0.6c-0.8,0-1.6,0-2.5,0
		c-0.5,0-0.7,0.2-0.7,0.7C67.4,47.1,67.4,52.4,67.4,57.8z"/>
	<path class="st0" d="M185.5,97.3c0,2.3,0,4.5,0,6.8c0,0.3,0,0.6-0.5,0.5c-1.9-0.4-3.5,0.3-5.1,1.2c-0.2,0.1-0.5,0.3-0.7,0.4
		c-1.3,0.6-1.1,1.8-1.1,2.9c-0.1,1.8-0.1,3.7-0.1,5.5c0,0.6-0.1,1-0.7,1.2c-1,0.4-2,0.8-3,1.2c-0.4,0.2-0.6,0.1-0.8-0.3
		c-1.2-2.2-2.3-4.3-3.6-6.5c-1-1.6-1.8-3.3-2.7-4.9c-0.3-0.6-0.7-1.2-1.1-1.8c-0.5-0.7-0.4-0.9,0.3-1.4c1.6-1,3.2-2.1,4.7-3.3
		c1.3-1.1,2.5-2.3,3.6-3.6c1.4-1.7,2.6-3.5,3.2-5.7c0.1-0.5,0.4-0.8,1-0.7c2,0.4,4.1,0.7,6.1,1c0.4,0.1,0.4,0.3,0.4,0.6
		C185.5,92.8,185.5,95.1,185.5,97.3z"/>
	<path class="st0" d="M155.3,121.9c-0.1-1-0.5-1.9-0.5-2.8c0-0.4-0.3-0.5-0.6-0.6c-0.9-0.3-1.8-0.6-2.7-0.8
		c-0.4-0.1-0.4-0.3-0.3-0.6c0.3-1.2,0.3-2.4,0.5-3.6c0.2-1.5,0.5-2.9,0.7-4.4c0-0.2,0.1-0.4,0.4-0.5c2.2-0.7,4.4-1.6,6.5-2.5
		c1.2-0.5,2.3-1.1,3.5-1.7c0.5-0.3,0.8-0.3,1.1,0.3c0.7,1.4,1.4,2.7,2.1,4.1c0.8,1.5,1.6,3,2.4,4.5c0.8,1.4,1.5,2.8,2.3,4.3
		c0.1,0.2,0.2,0.3,0.3,0.5c0.2,0.3,0.5,0.6,0.2,0.9s-0.6,0.8-1.2,0.6c-1.9-0.6-3.8-0.7-5.8-0.4c-1.4,0.2-2.6,0.8-3.5,1.9
		c-0.1,0.2-0.2,0.2-0.5,0.1c-1.6-0.6-3-0.3-4.3,0.7C155.7,121.7,155.6,121.8,155.3,121.9z"/>
	<path class="st0" d="M13.4,128.7c0-1.8,0-3.5,0-5.3c0-0.5,0.1-0.6,0.6-0.6s1.1,0,1.6,0c0.5-0.1,0.5,0.2,0.5,0.6c0,4,0,8.1,0,12.1
		c0,0.7,0,1.5,0,2.2c0,0.4-0.1,0.5-0.5,0.5s-0.7,0-1.1,0c-1.3,0-1.3,0-1.5-1.3c-0.4-1.6-0.6-3.2-1.3-4.8c0,0.2,0,0.5,0,0.7
		c0,1.6,0,3.1,0,4.7c0,0.5-0.2,0.7-0.6,0.6c-0.5,0-1,0-1.5,0c-0.4,0-0.5-0.1-0.5-0.5c0-4.8,0-9.7,0-14.5c0-0.4,0.1-0.5,0.5-0.5
		c0.6,0,1.2,0,1.7,0c0.4,0,0.5,0.2,0.6,0.5c0.4,1.6,0.7,3.1,1.1,4.7C13,128.3,13.2,128.5,13.4,128.7z"/>
	<path class="st0" d="M41.6,130.3c1.2,0.6,1.5,1.5,1.4,2.6c0,1.6,0,3.2,0,4.7c0,0.5-0.1,0.7-0.6,0.7s-1.1,0-1.7,0
		c-0.5,0-0.6-0.1-0.6-0.6c0-1.7,0-3.5,0-5.2c0-0.3,0-0.5-0.1-0.8c-0.1-0.2-0.3-0.4-0.6-0.4s-0.2,0.3-0.2,0.5c0,1.8,0,3.6,0,5.4
		c0,1.1,0,1.1-1,1.1c-0.5,0-1,0-1.5,0s-0.7-0.2-0.7-0.7c0-4.5,0-9,0-13.4c0-1.4,0-1.4,1.4-1.4c1.1,0,2.3,0,3.4,0.2
		c1.1,0.1,1.8,1.2,2,2.1c0.2,1.1,0.1,2.1,0.1,3.2C43,129.2,42.6,129.9,41.6,130.3z M39.2,127.1c0,0.4,0,0.8,0,1.2
		c0,0.2-0.1,0.4,0.2,0.5c0.3,0,0.6,0,0.6-0.3c0.2-0.9,0.2-1.7,0-2.6c-0.1-0.3-0.4-0.4-0.6-0.4c-0.4,0-0.2,0.3-0.2,0.5
		C39.2,126.4,39.2,126.8,39.2,127.1z"/>
	<path class="st0" d="M25.2,132.1c0-0.4,0.1-0.8,0.1-1.2c0.2-2.5,0.3-5,0.5-7.5c0-0.5,0.1-0.7,0.7-0.7c0.7,0.1,1.4,0,2.1,0
		c0.5,0,0.6,0.1,0.5,0.6c-0.3,2.9-0.6,5.9-0.9,8.8c-0.2,1.9-0.4,3.7-0.6,5.6c0,0.4-0.1,0.5-0.5,0.5c-1.3,0-2.5,0-3.8,0
		c-0.4,0-0.5-0.1-0.6-0.5c-0.4-2.8-0.7-5.5-1-8.3c-0.2-2-0.5-4.1-0.8-6.1c-0.1-0.5,0-0.7,0.6-0.6c0.7,0,1.5,0,2.2,0
		c0.5,0,0.6,0.2,0.6,0.6c0.1,2.7,0.5,5.4,0.6,8.1c0,0.2,0,0.5,0.1,0.7C25.1,132.1,25.1,132.1,25.2,132.1z"/>
	<path class="st0" d="M153,104.2c0.4-2.7,0.8-5.6,1.3-8.6c0.1-0.7,0.2-1.4,0.3-2.2c0-0.3,0.2-0.6,0.6-0.6c0.6,0,1.1-0.2,1.6-0.4
		c0.4-0.2,0.7-0.1,0.9,0.3c0.7,1.3,1.4,2.7,2.1,4c0.7,1.3,1.4,2.7,2.2,4c0.4,0.8,0.5,0.9-0.3,1.2c-1.2,0.6-2.4,1.2-3.6,1.7
		c-1.4,0.6-2.7,1.1-4.1,1.5C152.9,105.4,152.9,105.4,153,104.2z"/>
	<path class="st0" d="M32.3,138.3c-0.7,0-1.4,0-2.1,0c-0.4,0-0.5-0.1-0.5-0.5c0-4.9,0-9.7,0-14.6c0-0.4,0.1-0.4,0.5-0.4
		c1.5,0,2.9,0,4.4,0c0.3,0,0.4,0.1,0.4,0.4c0,0.8,0,1.5,0,2.3c0,0.3-0.1,0.5-0.4,0.5c0,0,0,0-0.1,0c-1.5,0.1-1.5,0.1-1.5,1.6
		c0,1.3,0,1.3,1.3,1.3c0.5,0,0.7,0.1,0.6,0.6c0,0.6,0,1.2,0,1.8c0,0.5-0.2,0.6-0.6,0.6c-1.3,0-1.3,0-1.3,1.3c0,0.5,0,1,0,1.5
		c0,0.4,0.1,0.6,0.5,0.5c0.4,0,0.8,0,1.3,0c0.4,0,0.5,0.1,0.5,0.5c0,0.7,0,1.5,0,2.2c0,0.4-0.2,0.5-0.6,0.5
		C33.8,138.3,33.1,138.3,32.3,138.3z"/>
	<path class="st0" d="M66.9,127.9c0.2-1.2,0.4-2.4,0.5-3.6c0.1-0.4,0.2-0.8,0.2-1.2c0.1-0.3,0.2-0.4,0.5-0.4c0.7,0,1.4,0,2.1,0
		c0.4,0,0.4,0.1,0.3,0.5c-0.6,2.2-1.1,4.5-1.6,6.7c-0.3,1.5-0.8,3-0.6,4.5c0.1,1.1,0,2.2,0,3.3c0,0.4-0.1,0.5-0.5,0.5
		c-0.6,0-1.2,0-1.9,0c-0.4,0-0.6-0.1-0.6-0.6c0-1.3,0-2.7,0-4c0.1-1.4-0.4-2.6-0.6-3.9c-0.2-0.9-0.4-1.7-0.6-2.6
		c-0.3-1.3-0.5-2.7-0.9-4c-0.1-0.4,0-0.5,0.4-0.5c0.6,0,1.1,0.1,1.7,0c0.7-0.1,0.9,0.3,1,0.9C66.4,125.1,66.7,126.5,66.9,127.9z"/>
	<path class="st0" d="M61,132.2c0,1.8,0,3.7,0,5.5c0,0.5-0.2,0.6-0.6,0.6c-0.7,0-1.3,0-2,0c-0.5,0-0.6-0.2-0.6-0.6c0-3.7,0-7.3,0-11
		c0-0.6-0.2-0.8-0.8-0.8c-1.1,0-1.1,0-1.1-1.1c0-0.5,0-1.1,0-1.6c0-0.3,0.1-0.5,0.4-0.5c2,0,3.9,0,5.9,0c0.4,0,0.5,0.1,0.5,0.5
		c0,0.7,0,1.4,0,2.2c0,0.4-0.2,0.5-0.5,0.5c-1.2,0-1.2,0-1.2,1.3C61,128.9,61,130.5,61,132.2z"/>
	<path class="st0" d="M160.5,90.4c0.4,0.2,0.9,0.4,1.4,0.6c2.5,1.2,5,2.3,7.5,3.5c0.5,0.2,1,0.5,1.6,0.7c0.3,0.1,0.5,0.3,0.2,0.5
		c-1.8,1.6-3.5,3.3-5.7,4.3c-0.1,0.1-0.2,0.1-0.3,0.2c-0.3,0.2-0.6,0.2-0.8-0.2c-0.7-1.2-1.4-2.4-2.1-3.6c-0.9-1.5-1.7-3-2.6-4.5
		c-0.4-0.6-0.4-0.8,0.2-1.1C159.9,90.7,160.1,90.4,160.5,90.4z"/>
	<path class="st0" d="M161.2,89.5c0.4-0.5,0.8-0.9,1-1.5c0.1-0.3,0.3-0.5,0.7-0.5c3.9-0.1,7.8,0.3,11.7,0.6c0.5,0,1.1,0.2,1.6,0.3
		c0.4,0,0.4,0.2,0.3,0.5c-0.3,0.6-0.6,1.2-1,1.7c-0.6,0.8-1.2,1.5-1.8,2.3c-0.3,0.4-0.6,0.5-1.1,0.3c-2.2-0.8-4.5-1.6-6.7-2.3
		c-1.2-0.4-2.5-0.8-3.7-1.1C161.8,89.8,161.4,89.7,161.2,89.5z"/>
	<path class="st0" d="M170,86.6c-2.2,0-4.5,0-6.7,0c-0.4,0-0.7-0.1-0.7-0.6c-0.1-1.1-0.1-1,1-1.3c1.9-0.5,3.9-1.1,5.8-1.7
		c1.3-0.4,2.6-0.7,3.9-1.1c0.9-0.3,1.9-0.5,2.8-0.8c0.3-0.1,0.4,0,0.5,0.2c1.1,1.5,1.2,3.1,0.9,4.8c-0.1,0.4-0.3,0.3-0.6,0.3
		c-2.3,0-4.6,0-6.8,0C170,86.5,170,86.6,170,86.6z"/>
	<path class="st0" d="M144.1,115.7c-1.1,0-2.3,0-3.4,0c-0.5,0-0.6-0.1-0.4-0.6c0.5-1.6,0.9-3.1,1.4-4.7c0.2-0.6,0.4-1.1,0.5-1.7
		c0.1-0.3,0.2-0.3,0.5-0.2c2.1,0.6,4.2,0.5,6.3,0.5c0.4,0,0.6,0.1,0.5,0.5c-0.4,1.9-0.8,3.8-1.1,5.7c-0.1,0.4-0.3,0.4-0.6,0.4
		c-1.2,0-2.3,0-3.5,0C144.1,115.6,144.1,115.7,144.1,115.7z"/>
	<path class="st0" d="M20.5,130.6c0,2.4,0,4.7,0,7.1c0,0.5-0.1,0.7-0.6,0.6c-0.6,0-1.3,0-1.9,0c-0.5,0-0.7-0.1-0.7-0.7
		c0-3.8,0-7.6,0-11.4c0-1,0-2,0-3c0-0.4,0.1-0.5,0.5-0.5c0.7,0,1.4,0,2.1,0c0.5,0,0.6,0.1,0.6,0.6C20.5,125.8,20.5,128.2,20.5,130.6
		z"/>
	<path class="st0" d="M55.3,130.6c0,2.4,0,4.7,0,7.1c0,0.5-0.2,0.7-0.7,0.6c-0.7,0-1.3,0-2,0c-0.6,0-0.6-0.2-0.6-0.7
		c0-4.5,0-8.9,0-13.4c0-1.5,0-1.5,1.4-1.4c0.6,0,1.4-0.3,1.7,0.1c0.3,0.4,0.1,1.1,0.1,1.7C55.3,126.6,55.3,128.6,55.3,130.6z"/>
	<path class="st0" d="M152.6,93.6c-0.5,2.4-1,4.8-1.5,7.3c-0.3,1.6-0.7,3.3-1,5c0,0.2-0.1,0.3-0.3,0.4c-2.2,0.4-4.4,0.7-6.6,0
		c-0.6-0.2-0.3-0.5-0.2-0.8c0.4-0.6,0.9-1.2,1.4-1.7c1.4-1.8,2.8-3.6,4.3-5.4c1.2-1.6,2.5-3.2,3.7-4.8
		C152.5,93.5,152.5,93.5,152.6,93.6z"/>
	<path class="st0" d="M174.1,76.6c1.3-0.8,2.6-1.3,3.8-1.9c1.9-0.9,3.8-1.5,5.8-2.2c1.6-0.5,1.8-0.3,1.8,1.2c0,0.8,0,1.6,0,2.4
		c0,0.3-0.1,0.5-0.4,0.6c-0.5,0.2-1,0.4-1.5,0.5c-1.8,0.5-3.5,1.2-5.3,1.7c-0.4,0.1-0.7,0.1-1-0.3C176.4,77.9,175.3,77.2,174.1,76.6
		z"/>
	<path class="st0" d="M164.7,76.3c0.8-0.9,1.7-1.4,2.5-1.9c2.2-1.4,4.7-2.4,7.2-3.1c1.9-0.6,3.9-0.3,5.8-0.3c0.8,0,1.6,0.1,2.4,0.2
		c-0.9,0.4-1.9,0.8-2.8,1.2c-2,0.9-3.9,1.7-5.9,2.6c-0.8,0.4-1.5,0.7-2.3,1.1c-0.2,0.1-0.4,0.1-0.6,0.1
		C169,76.1,166.9,76.1,164.7,76.3z"/>
	<path class="st0" d="M185.5,83.2c0,0.9,0,1.9,0,2.8c0,0.3-0.1,0.5-0.5,0.5c-1.8,0-3.6,0-5.5,0c-0.3,0-0.5-0.1-0.4-0.5
		c0-0.1,0-0.2,0-0.3c0.2-1.7,0.1-3.3-0.6-4.9c-0.1-0.3-0.1-0.3,0.2-0.5c0.6-0.3,1.2-0.3,1.8-0.3c1.5,0,2.9,0,4.4-0.1
		c0.4,0,0.5,0.1,0.5,0.5C185.5,81.3,185.5,82.2,185.5,83.2z"/>
	<path class="st0" d="M213.3,60.9c-0.3,1.2-0.5,2.5-0.8,3.7c-0.2,0.7-0.3,1.5-0.4,2.3c-0.1,0.6-0.3,0.9-1,0.8
		c-1.5-0.3-1.4,0-1.1-1.6c0.3-1.5,0.6-3,1-4.6c0-0.2,0.1-0.3,0.1-0.5s-0.1-0.4-0.3-0.4s-0.3,0.2-0.3,0.3c-0.1,0.5-0.3,1.1-0.4,1.6
		c-0.3,1.2-0.5,2.4-0.7,3.6c0,0.2-0.1,0.3-0.1,0.4c-0.1,0.5-0.4,0.6-0.9,0.5c-1.8-0.3-1.5-0.1-1.2-1.7c0.4-2.1,0.9-4.2,1.3-6.2
		c0.1-0.3,0.2-0.3,0.4-0.3c0.6,0.1,1.2,0.1,1.8,0.4c0.4,0.2,0.7,0.1,1.1,0.1c0.9,0.1,1.6,0.6,1.6,1.1
		C213.3,60.7,213.3,60.8,213.3,60.9z"/>
	<path class="st0" d="M202.8,66.3c-0.7-0.1-1.5,0-2.1-0.5c-0.6-0.4-0.9-0.8-0.8-1.5c0.2-1.7,0.4-3.3,0.7-5c0.1-0.8,0.6-1.2,1.4-1.3
		c1.1-0.1,2.1-0.1,3.1,0.5c0.5,0.3,0.8,0.8,0.7,1.4c-0.2,1.7-0.4,3.4-0.7,5.1C204.8,66,204.1,66.3,202.8,66.3z M202.1,64.4
		c0,0.2-0.1,0.5,0.3,0.6c0.3,0,0.4-0.2,0.4-0.5c0.2-1.5,0.4-3,0.7-4.5c0-0.3,0-0.4-0.3-0.5s-0.4,0.1-0.5,0.4
		C202.6,61.3,202.2,62.8,202.1,64.4z"/>
	<path class="st0" d="M171.3,78c0.8,0,1.4,0.4,2,0.6c0.5,0.2,1,0.6,1.4,0.9c0.5,0.3,0.4,0.6-0.1,0.8c-1.1,0.3-2.2,0.7-3.3,1.1
		c-1.8,0.6-3.6,1.2-5.4,1.8c-1.3,0.5-2.7,0.9-4,1.4c-0.4,0.1-0.7-0.2-0.8-0.4c-0.2-0.2,0.2-0.3,0.4-0.4c1.6-1,3.2-2.1,4.9-3
		c1.5-0.9,3.1-1.7,4.6-2.6C171.2,78,171.3,78,171.3,78z"/>
	<path class="st0" d="M190,61.3c0-0.9,0-1.7,0-2.6c0-0.3-0.1-0.5-0.4-0.5c-0.4,0-0.5-0.2-0.5-0.5c0.1-0.3-0.1-0.7,0.5-0.6
		c0.5,0.1,0.5-0.3,0.6-0.7c0.1-1,0.1-1,1-0.9c0.1,0,0.1,0,0.2,0c1.1,0,1,0.1,0.9,0.9c-0.1,0.5,0.1,0.8,0.7,0.7
		c0.7-0.1,0.5,0.4,0.5,0.8c0,0.6-0.3,0.5-0.7,0.4c-0.5-0.1-0.6,0.1-0.6,0.5c0,1.4-0.1,2.8-0.1,4.2c0,0.5,0.2,0.8,0.7,0.8
		s0.6,0.2,0.5,0.6c-0.1,0.3,0.1,0.9-0.6,0.8c-0.5-0.1-1.1,0-1.7-0.1c-0.9-0.1-1.2-0.4-1.2-1.3s0-1.7,0-2.6
		C189.9,61.3,189.9,61.3,190,61.3z"/>
	<path class="st0" d="M137.3,96.6c-0.4-0.9,0.5-1,1-1.3c1.5-0.7,3-1.5,4.6-2.2c1.9-0.8,3.8-1.5,5.8-2.1c0.3-0.1,0.6-0.1,0.8-0.1
		c0.3-0.1,0.5,0,0.5,0.3c0,0.1,0,0.2,0.1,0.3c0.6,0.6,0.3,0.7-0.3,0.9c-2.8,1.1-5.5,2.2-8.2,3.3c-1.2,0.5-2.4,1.1-3.6,1.7
		C137.4,97.8,137.3,97.7,137.3,96.6z"/>
	<path class="st0" d="M159.9,78.9c-0.4,1.1-1,2-1.4,2.9c-0.2,0.4-0.5,0.8-0.6,1.2c-0.2,0.8-0.7,1.2-1.5,1.3c-0.5,0-0.9,0.3-1.3,0.5
		c-0.4,0.1-0.6,0.2-0.7-0.3c-0.3-0.8-0.8-1.6-1.2-2.5c-0.1-0.2-0.2-0.4,0.1-0.6c1.8-0.8,3.7-1.5,5.5-2.2
		C159.1,79.1,159.4,79,159.9,78.9z"/>
	<path class="st0" d="M138.5,88.9c-1.2,1.5-2.4,2.9-3.4,4.5c-0.3,0.5-0.9,0.4-1.4,0.7c-0.3,0.2-0.7,0.2-1,0.4
		c-0.5,0.3-0.9-0.2-1.3-0.4c-0.4-0.2-0.7-0.4-0.2-1c1.2-1.5,2.6-2.7,4-4c0.1-0.1,0.3-0.2,0.5-0.2C136.7,88.9,137.6,88.9,138.5,88.9z
		"/>
	<path class="st0" d="M138.7,92.3c0.7-1.4,1.7-2.5,2.8-3.6c0.2-0.1,0.3-0.1,0.5-0.1c2.6-0.1,5.1-0.1,7.7-0.2c0.2,0,0.6-0.1,0.5,0.3
		c0,0.3,0,0.7-0.5,0.8c-0.7,0.1-1.4,0.2-2.1,0.4c-2.2,0.5-4.3,1.1-6.5,1.8C140.4,91.9,139.6,92.1,138.7,92.3z"/>
	<path class="st0" d="M195.5,64.3c0-2.2,0.4-4.4,0.5-6.6c0-0.3,0.1-0.4,0.4-0.4c0.6-0.1,1.1,0.1,1.7,0.2c0.2,0,0.2,0.2,0.2,0.3
		c-0.2,2.4-0.4,4.9-0.6,7.3c0,0.3-0.1,0.4-0.4,0.4c-0.2,0-0.4,0-0.5,0C195.4,65.5,195.4,65.5,195.5,64.3z"/>
	<path class="st0" d="M168.3,77.7c-0.7,0.4-1.4,0.8-2.1,1.3c-2.2,1.3-4.3,2.7-6.1,4.6c-0.3,0.4-0.7,0.3-1.1,0.3
		c-0.3,0-0.1-0.2-0.1-0.3c0.5-1.1,1.2-2,1.8-3c0.4-0.6,0.9-1.1,1.3-1.8c0.5-0.8,1.4-0.7,2.1-0.9c1.3-0.3,2.7-0.3,4-0.3
		C168.3,77.6,168.3,77.6,168.3,77.7z"/>
	<path class="st0" d="M144.8,86.2c0.6-0.6,1.3-0.9,1.9-1.3c0.7-0.5,1.5-0.8,2.3-1.3c0.2-0.1,0.4-0.1,0.6,0.1
		c0.9,0.8,1.8,1.5,2.7,2.2c0.3,0.2,0.3,0.4,0,0.7c-0.5,0.4-1,0.6-1.6,0.4c-1.8-0.4-3.7-0.3-5.5-0.7C145,86.2,144.9,86.2,144.8,86.2z
		"/>
	<path class="st0" d="M162.2,74.3c-0.3,1-0.8,1.8-1.2,2.6c-0.1,0.1-0.2,0.1-0.3,0.2c-1.2,0.3-2.4,0.6-3.6,1c-1.6,0.5-3.1,1-4.6,1.8
		c-0.3,0.1-0.5,0-0.5-0.2s-0.6-0.4,0-0.7c0.9-0.4,1.7-0.9,2.6-1.3c1.6-0.7,3.2-1.5,4.9-2.2C160.3,75.1,161.2,74.7,162.2,74.3z"/>
	<path class="st0" d="M133.2,98.2c0.1,0.6-0.1,1.1,0,1.6c0,0.2-0.3,0.4-0.5,0.5c-1.8,1-3.5,2-5.1,3.2c-0.2,0.1-0.3,0.1-0.5,0
		c-1.1-0.6-1.2-0.9-0.2-1.6C128.9,100.7,131,99.4,133.2,98.2z"/>
	<path class="st0" d="M139.4,85.4c0.6-0.4,1.1-0.8,1.7-1.1c1.4-0.9,2.8-1.7,4.2-2.6c0.3-0.2,0.7-0.3,1-0.6c0.1-0.1,0.2-0.1,0.3,0
		c0.4,0.3,0.7,0.6,1.1,1c-1.7,1-3.4,1.9-4.8,3.1c-1.1,0.9-2.3,0.5-3.4,0.4C139.4,85.5,139.4,85.5,139.4,85.4z"/>
	<path class="st0" d="M185.1,69c0-1,0-2.1,0-3.1c0-0.5-0.2-0.7-0.7-0.6c-0.6,0.1-1.3,0.2-1.9,0c0.7,0,1.4-0.1,2.1-0.1
		c0.7,0,0.7-0.2,0.7-0.7c0-2.5,0-4.9,0-7.4l0,0c1.1,0.4,1.3,0.8,1.3,1.9c0,1.9,0.2,3.7,0.3,5.6c0,0.5-0.1,0.6-0.6,0.6
		c-0.2,0-0.3,0-0.5,0c-0.4,0-0.6,0.1-0.6,0.6c0,0.9,0,1.8,0,2.6C185.2,68.6,185.2,68.8,185.1,69z"/>
	<path class="st0" d="M197.2,57.1c-0.1,0-0.2,0-0.3,0c-0.9-0.1-1.1-0.4-0.9-1.3c0.1-0.3,0.2-0.3,0.5-0.2c0.4,0,0.8,0.1,1.2,0.1
		c0.5,0,0.6,0.2,0.5,0.6C198.2,57.2,198.4,57.1,197.2,57.1z"/>
	<path class="st0" d="M182.9,57.1c0.5-0.3,1-0.1,1.5-0.1s0.7-0.1,0.7-0.6c0-6.5,0-13,0-19.4c0-0.3-0.2-0.5-0.3-0.8
		c0.5,0.1,0.4,0.5,0.4,0.8c0,6.1,0,12.3,0,18.4c0,0.6,0,1.2,0,1.8l0,0C184.4,57.1,183.7,57.1,182.9,57.1z"/>
	<path class="st0" d="M178,69.9c1.3-0.4,2.6-0.5,4-0.5C180.7,69.6,179.4,69.7,178,69.9z"/>
	<path class="st0" d="M183.1,69.3c0.4-0.5,1-0.1,1.5-0.2C184.1,69.3,183.6,69.4,183.1,69.3z"/>
	<path class="st0" d="M184.9,69.1c0.1,0,0.1-0.1,0.2-0.1C185.1,69.1,185,69.1,184.9,69.1z"/>
	<path class="st0" d="M101.4,106.3c-0.1-0.1-0.1-0.2-0.2-0.2c-0.5-0.3-0.9-0.6-1.4-0.9c-0.1-0.1-0.3-0.1-0.4,0.1s-0.1,0.4,0.1,0.5
		c0.5,0.3,0.9,0.6,1.4,0.9C101.2,106.9,101.2,106.5,101.4,106.3z"/>
	<path class="st0" d="M153.9,65.3c0.1-0.1,0.5,0,0.4-0.3c-0.2-0.5-0.3-1-0.5-1.5c-0.1-0.2-0.3-0.3-0.5-0.2c-0.3,0-0.3,0.2-0.2,0.4
		c0.2,0.4,0.3,0.9,0.4,1.4C153.6,65.2,153.7,65.3,153.9,65.3z"/>
	<path class="st0" d="M184.5,62.9C184.5,62.9,184.4,62.9,184.5,62.9c0-0.2,0-0.5,0-0.7s0.1-0.4-0.2-0.4c-0.2,0-0.5,0.1-0.5,0.4
		c0,0.5,0,1,0,1.5c0,0.2,0.2,0.4,0.4,0.4s0.3-0.2,0.3-0.4C184.5,63.4,184.5,63.1,184.5,62.9z M183.6,59.4c0,0.2,0,0.4,0,0.5
		s-0.1,0.3,0.1,0.4c0.2,0.1,0.3-0.1,0.4-0.2c0.3-0.3,0.4-1.3,0.2-1.7c-0.2-0.3-0.5-0.2-0.6,0.1C183.5,58.9,183.6,59.2,183.6,59.4z"
		/>
	<path class="st0" d="M157.4,67.2C157.4,67.2,157.3,67.2,157.4,67.2c-0.2-0.4-0.2-1-0.6-1.1c-0.6-0.1-1.2,0.1-1.7,0.4
		c-0.3,0.1-0.2,0.4-0.1,0.6c0.1,0.3,0.2,0.7,0.3,1c0.1,0.2,0.1,0.4-0.2,0.5s-0.5,0-0.5-0.3c-0.2-0.5-0.3-1-0.5-1.5
		c-0.1-0.3,0.3-0.4,0.5-0.5c0.5-0.1,1-0.3,1.5-0.4c0.6-0.1,0.7-0.5,0.5-1c-0.1-0.1-0.1-0.3-0.1-0.4c0.1,0,0.2,0.1,0.2,0.1
		C156.7,65.6,157.5,66.3,157.4,67.2z"/>
	<path class="st0" d="M93.2,124.7c-0.2,0-0.4-0.1-0.5,0.2c-0.1,0.4-0.4,0.8-0.6,1.3s0,0.6,0.4,0.7c0.3,0.1,0.7,0.2,1,0.4
		c0.2,0.1,0.3,0.2,0.2,0.5c-0.1,0.3-0.3,0.2-0.5,0.2c-0.5-0.2-1-0.4-1.5-0.6c-0.4-0.1-0.2-0.4-0.1-0.6c0.3-0.6,0.5-1.2,0.8-1.9
		c0.1-0.1,0.1-0.2,0-0.4C92.7,124.6,93,124.5,93.2,124.7z"/>
	<path class="st0" d="M131.1,78.3c-0.8,0.1-1.2,0.7-1.8,1.1c-0.2,0.1,0,0.3,0.1,0.4c0.2,0.4,0.6,0.6,0.8,1c0.1,0.2,0.2,0.3,0,0.5
		s-0.4,0.1-0.5-0.1c-0.3-0.4-0.7-0.9-1-1.3c-0.2-0.3,0-0.3,0.2-0.5c0.6-0.5,1.4-0.9,2-1.5C130.9,78,131,78.1,131.1,78.3z"/>
	<path class="st0" d="M104.1,105.3c-0.6,0.4-0.8,1.1-1.2,1.6c-0.2,0.2,0.2,0.4,0.3,0.5c0.3,0.2,0.6,0.4,0.9,0.6
		c0.2,0.1,0.3,0.3,0.1,0.5c-0.1,0.2-0.3,0.2-0.5,0.1s-0.3-0.2-0.5-0.3c-1.2-0.8-1.2-0.8-0.3-2c0.3-0.3,0.6-0.6,0.7-1.1
		C103.8,105.2,104,105.1,104.1,105.3z"/>
	<path class="st0" d="M113.4,93.5c-0.2-0.5,0.6-0.5,0.4-1c0.3-0.2,0.3,0.2,0.4,0.3C113.8,92.8,113.7,93.3,113.4,93.5L113.4,93.5z"/>
	<path class="st0" d="M181.6,62c0,0.8,0,1.6,0,2.4C181.4,63.6,181.4,62.8,181.6,62z"/>
	<path class="st0" d="M157.4,68.6c0.1-0.3,0.1-0.7,0-1.1C157.8,67.9,157.8,68.3,157.4,68.6z"/>
	<path class="st0" d="M156.6,64.6c-0.2-0.2-0.2-0.3-0.2-0.6C156.6,64.1,156.6,64.3,156.6,64.6z"/>
	<path class="st0" d="M181.7,64.9c0.1,0,0.2,0.1,0.3,0.3C181.8,65.2,181.7,65.1,181.7,64.9z"/>
	<path class="st0" d="M182.9,57.1c-0.1,0-0.3,0.1-0.4,0.1C182.7,57.1,182.8,57.1,182.9,57.1z"/>
	<path class="st0" d="M103.3,104.8c-0.1-0.1-0.2-0.1-0.3-0.2C103.1,104.6,103.2,104.6,103.3,104.8z"/>
	<path class="st0" d="M93.4,124.9c-0.1,0-0.2,0-0.2-0.1C93.3,124.8,93.3,124.9,93.4,124.9z"/>
	<path class="st0" d="M103.4,104.9C103.3,104.9,103.3,104.8,103.4,104.9C103.3,104.8,103.3,104.9,103.4,104.9z"/>
	<path class="st0" d="M114.7,93.1C114.6,93.1,114.6,93.1,114.7,93.1L114.7,93.1z"/>
	<path class="st0" d="M114.6,93C114.5,93,114.5,92.9,114.6,93C114.5,92.9,114.5,93,114.6,93z"/>
	<polygon class="st0" points="130.7,77.8 130.6,77.8 130.6,77.7 	"/>
	<path class="st0" d="M182.3,65.3L182.3,65.3L182.3,65.3C182.4,65.3,182.3,65.3,182.3,65.3z"/>
	<path class="st0" d="M92.2,124.4c-0.1,0-0.1-0.1-0.2-0.1C92.1,124.3,92.2,124.4,92.2,124.4z"/>
	<path class="st0" d="M92.4,124.5c-0.1,0-0.1,0-0.1-0.1C92.3,124.4,92.3,124.5,92.4,124.5z"/>
	<path class="st0" d="M103.5,105c-0.1,0-0.1-0.1-0.2-0.1C103.4,104.9,103.5,105,103.5,105z"/>
	<path class="st0" d="M8.2,103.9L8.2,103.9C8.2,103.9,8.2,103.8,8.2,103.9C8.2,103.8,8.2,103.8,8.2,103.9
		C8.3,103.8,8.2,103.8,8.2,103.9z"/>
	<path class="st0" d="M162.5,66.4c0,0.2,0,0.3-0.2,0.4c-0.2,0-0.3,0-0.4-0.1c-0.1-0.1-0.2-0.3-0.2-0.4c-0.3-1.4-0.7-2.8-1-4.2
		c-0.1-0.3-0.2-0.7,0.2-0.8c0.4-0.1,0.5,0.3,0.5,0.6c0.2,1,0.5,2,0.7,3.1C162.2,65.4,162.4,65.9,162.5,66.4z"/>
	<path class="st0" d="M90.1,126.7c-0.5-0.2-1.1-0.5-1.7-0.7c-0.1-0.1-0.1-0.2-0.1-0.4c0.1-0.2,0.2-0.2,0.3-0.2
		c0.6,0.1,1.1,0.3,1.7,0.6c0.2,0.1,0.1,0.3,0.1,0.4C90.3,126.6,90.3,126.7,90.1,126.7z"/>
	<path class="st0" d="M128.2,78.3c0,0.2-0.1,0.2-0.2,0.3c-0.2,0.1-0.3,0.1-0.4-0.1c-0.3-0.4-0.6-0.8-1-1.2c-0.1-0.2-0.2-0.3,0-0.4
		s0.4-0.2,0.5,0C127.5,77.4,127.8,77.8,128.2,78.3C128.1,78.2,128.1,78.2,128.2,78.3z"/>
	<path class="st0" d="M101.4,106.3c-0.1,0.2-0.2,0.5-0.5,0.4c-0.5-0.3-1-0.6-1.4-0.9c-0.2-0.1-0.2-0.3-0.1-0.5
		c0.1-0.1,0.3-0.2,0.4-0.1c0.5,0.3,1,0.6,1.4,0.9C101.3,106.2,101.3,106.2,101.4,106.3z"/>
	<path class="st0" d="M113.4,93.4c-0.7,0.9-0.7,0.9,0.2,1.6c0.1,0.1,0.3,0.2,0.4,0.3c0.2,0.2,0.2,0.3,0,0.5s-0.3,0.1-0.5,0
		c-0.2-0.2-0.5-0.4-0.7-0.6s-0.8-0.4-0.6-0.7C112.4,94.1,112.8,93.7,113.4,93.4C113.3,93.4,113.4,93.4,113.4,93.4L113.4,93.4z"/>
	<path class="st0" d="M109.9,92c0,0,0.1,0.1,0.2,0.2c0.4,0.3,0.8,0.7,1.1,1c0.2,0.2,0.2,0.3,0,0.5s-0.3,0.2-0.5,0
		c-0.4-0.3-0.8-0.6-1.2-0.9c-0.2-0.1-0.2-0.3-0.1-0.5C109.6,92.1,109.7,92,109.9,92z"/>
	<path class="st0" d="M153.9,65.3c-0.2,0-0.3-0.1-0.4-0.2c-0.1-0.5-0.2-0.9-0.4-1.4c-0.1-0.2,0-0.4,0.2-0.4s0.4,0,0.5,0.2
		c0.2,0.5,0.2,1,0.5,1.5C154.4,65.2,154,65.2,153.9,65.3z"/>
	<path class="st0" d="M184.5,62.9c0,0.2,0,0.5,0,0.7s-0.1,0.4-0.3,0.4s-0.4-0.1-0.4-0.4c0-0.5-0.1-1,0-1.5c0-0.3,0.3-0.4,0.5-0.4
		c0.3,0,0.2,0.2,0.2,0.4C184.5,62.4,184.4,62.7,184.5,62.9C184.4,62.9,184.5,62.9,184.5,62.9z"/>
	<path class="st0" d="M183.6,59.4c0-0.2-0.1-0.6,0.1-0.8c0.1-0.3,0.4-0.4,0.6-0.1c0.3,0.3,0.2,1.4-0.2,1.7c-0.1,0.1-0.2,0.3-0.4,0.2
		c-0.2-0.1-0.1-0.3-0.1-0.4C183.6,59.8,183.6,59.7,183.6,59.4z"/>
</g>
</svg>
